<?xml version="1.0" encoding="UTF-8"?>
<svg version="1.1" viewBox="0 0 32 32" width="32" height="32" xmlns="http://www.w3.org/2000/svg">
<path transform="translate(0)" d="m0 0h1024v1024h-1024z" fill="#000D27"/>
<path transform="translate(531,240)" d="m0 0 4 2 71 71 7 8 8 8 3 1 6 8 8 8-2 5-5 5-6 5-6 7-5 5-5 4-14 16h-2l-2 4-4 4h-2l-1 4-4 3-5-6-26-26v-2l-4-2-12-12-4 2-12 11-3 3h-2v3l-8 7-16 16h-2l-1 4-4 2-2 4-44 44h-2l-2 4-7 6-5-3-8-7-1-3-8-6-6-8-29-29 2-5 6-5 5-6 8-7 8-8 5-6h2l2-4 31-31 7-8 33-33 3-4h2l2-4 47-47z" fill="#018C9D"/>
<path transform="translate(621,412)" d="m0 0h14l9 4 8 7 4 5 26 3 10 4 8 6 5 9 1 4v13l-31 10-47 15-29 9-27 9-12 7-8 7h-2l-2 4-8 11-5 10-4 15-1 11h-2l-7-8-11-8-14-5-5-1-123-1 6-7 30-30h2l2-4 10-9 28-28 24-8 20-6 9-3 48-15 21-6h3v23l4 15 1 4h2l2 5 26-7 2-1-8-8-4-7-2-9v-11l3-10 6-8 7-6z" fill="#CE9935"/>
<path transform="translate(531,240)" d="m0 0 4 2 71 71 7 8 10 10-4 2-2 4-12 13-8 8-4-2-12-13-47-47h-3l-10 9-7 8-39 39-6 7h-2l-1 3-7 6-6 7-3 3h-2l-2 4-4 2v2h-2l-2 4-24 24-1 2h-2v2l-4 2-11-11-7-8-7-7 6-7 8-8 5-6h2l2-4 31-31 7-8 33-33 3-4h2l2-4 47-47z" fill="#FBDA79"/>
<path transform="translate(470,683)" d="m0 0 4 2 11 12 6 5 7 8 4 4v2h2l7 8 19 19 5-1 7-8 15-15h2l2-4 26-26 5-6 5 1 15 16 9 9-2 4-8 8-4 5-22 22h-2l-2 4-8 8h-2l-2 4-7 7h-2l-2 4-17 17h-2l-2 4-3 3-4-1-87-87 2-4 5-6 8-7 8-8z" fill="#915A0C"/>
<path transform="translate(621,412)" d="m0 0h14l9 4 8 7 4 5 26 3 10 4 8 6 5 9 1 4v13l-31 10-47 15-29 9-24 8h-3v-2l-6-1h-6l-1-4-11-1-4-1-1 2-2-6 8-4 23-6 7-3 17-4 12-4-8-8-4-7-2-9v-11l3-10 6-8 7-6z" fill="#FBDA78"/>
<path transform="translate(748,456)" d="m0 0 7 6 11 12 43 43-2 4-7 8-10 10-4 5h-2l-2 4-3 1-1 3h-2l-2 4-4 4h-2l-2 4-4 4h-2l-2 4-35 35-5-2-7-7v-2l-4-2-4-4v-2l-4-2-5-6 2-1 2-4 56-56-1-4-30-30 6-9 13-13z" fill="#CF9A35"/>
<path transform="translate(359,577)" d="m0 0h132l8 3 8 6 7 9 4 12v10h-153l-9-3-7-8-2-4v-13l3-6 6-5z" fill="#FACD64"/>
<path transform="translate(347,428)" d="m0 0 4 2 13 13 7 8 3 4-35 35-5 6h-2l-2 4-6 5-7 8-3 3 1 4 22 22-1 4-3 1-2 4-19 19-4-1-4-5-32-32-7-8-5-5 2-4 13-13 9-10 39-39 7-8 12-12h2l2-4z" fill="#FACC63"/>
<path transform="translate(446,678)" d="m0 0h173l5 3 1 6 4 2 6 5-1 4h-2l-2 4-2 3-7 1-5-5-12-11-3-5-3-1-2-2-6 4-9 10-44 44-3 4-5-1-25-25v-2h-2l-7-8-5-6-8-7-10-11-4 2-8 7-8 8-5 3h-2l-1 2-4 2-2-3-5-3-3-7 3-7h3l2-4 3-4z" fill="#012140"/>
<path transform="translate(568,436)" d="m0 0h3v23l4 15 1 4-4-2-1-2-4 1-3-2-4 2h-3l-2 1-2-3-2 2v-2l-2 1 1 4-6-1v2l4 1h-5v-2h-2v2h-2v-3h-2l-1 3h-3v-2h-2v2h-4v3l-7 1-1 2h-3v2h-2v-3l-3 3v-2h-2v2l-10 3-3 3-5-1-1 3v-2l-8-1-4 2-6 1-5 2-3 1v-3l-4 2h-4v-2l-2-1 1 6h-2l-1-2-3 1v-2l-6 2-3-1v4l-6 1-2-1v-3l-4 4-4-1 1-2-3 1-1-3 25-25 24-8 20-6 9-3 48-15z" fill="#E2B149"/>
<path transform="translate(605,524)" d="m0 0 2 1-10 15-8 16-4 13-1 5v23l4 13 6 11 7 8 8 6 10 4 29 1 8 8 7 6v1h-64l-10-4-9-6-4-3v-2h-2l-9-12-8-16-3-12-1-8v-11l2-13 4-12 6-10 10-9 11-6 16-6z" fill="#FACD64"/>
<path transform="translate(722,485)" d="m0 0 4 2 29 29-1 4-57 57-1 2-4-1-2-2v-3h-2l-7-8-14-13-4-5 1-4 5-5h2v-2l8-7 26-26 7-8 8-8h2z" fill="#04597F"/>
<path transform="translate(534,524)" d="m0 0 1 4-1 2 2 1v-5l8 3-1 5-6 10-5 15-2 16h-2l-7-8-11-8-14-5-5-1-123-1 6-7 20-20 2 4-2 3h6v-2h2v2l4 1 1 1 2-3 3 3 1-4 2 2 6-2h11l4 1v-2l12 2v-2l-2-1h3v2h2v-2h13l2 1 3-1v2h2l1-2 4 2 7-1 1-1h5l1 2 1-2 5-1 7-1 2 2 5 1 10-2v-1l11-1v3h2z" fill="#BE8826"/>
<path transform="translate(373,455)" d="m0 0 5 2 6 6v2h2l7 8 7 7-1 4-6 5-6 7-5 5-13 12-24 24-5 6-3 1-7-8-17-17 1-4 13-13 5-6 5-5 5-4 7-8z" fill="#045980"/>
<path transform="translate(748,456)" d="m0 0 7 6 11 12 43 43-2 4-7 8-7 6-1-2 2-2-4 1v2l-4-1v-3h2v-2l-6 5h-9l-5-1-1-2h-3v2h-2l-1-4h-6l-2 5-5-5-6 7-5 2 6-7 11-11-1-4-30-30 6-9 13-13z" fill="#F9CC63"/>
<path transform="translate(693,437)" d="m0 0 5 2 6 9 2 6v13l-31 10-47 15-29 9-24 8h-3v-2l-6-1h-6l-1-4-11-1-4-1-1 2-2-6 8-4 23-6 7-3 17-4 14-4 5 4v-4h3v2h20v-2l6-2 7-5 4-6-1-2 8-1 5-5 6 1 1-3v5l2 2-1 3 1 1 3 1 8-4v-2l-3 2h-5l-4-5 1-6 5-3 6 2 4 5 2-5h6l-2-3-5-3v-3l-3 1-1-2z" fill="#FACC64"/>
<path transform="translate(380,394)" d="m0 0 4 1 12 12 7 8 5 4 3-1v-2h2l1-3 6-2h4l1 2-3 3h3l1-2 3 1-2 1 1 4 12-1 7-3 5-1 4 2v2l4-1 1-2 6 1 5-2 2-4 6-4 4-1-1 2h-2l-2 4-44 44h-2l-2 4-7 6-5-3-8-7-1-3-8-6-6-8-29-29 2-5 6-5z" fill="#03678A"/>
<path transform="translate(284,494)" d="m0 0 5 1v3h-2l-1 5-5 4-1 3h2v2h9v-2h4l1 3 2 1 1-2h4l1-2 4 2 5 2v-4l10-5-2 4-7 7 1 4 22 22-1 4-3 1-2 4-19 19-4-1-4-5-32-32-7-8-5-5 2-4 13-13 6-7 1 3z" fill="#E2B149"/>
<path transform="translate(531,681)" d="m0 0 4 2 14 14 5 6 10 10-5 6-8 7-14 14-3 4-5-1-25-25v-2h-2l-1-4 5-6 5-5z" fill="#024B73"/>
<path transform="translate(404,640)" d="m0 0h129l16 14v1h-129l-10-9-6-5z" fill="#FBCD65"/>
<path transform="translate(688,520)" d="m0 0 1 2-2 3-3 4h-3l1 4h-3l2 2h4v-2l9 2 5 3v-3l5 2 3 1-1-3 7-1h3l2-1v3h-2l1 3 3 1 2-4 6-5h8l2-4 2 5-3 5-40 40-1 2-4-1-2-2v-3h-2l-7-8-14-13-4-5 1-4 5-5h2v-2l8-7z" fill="#034C74"/>
<path transform="translate(470,683)" d="m0 0 4 2 11 12 6 5 7 8 4 4v2h2l4 8 5 4v2l4 2 1 3 3 2-5 3-2-4-5 1-7-3-3 2h-3v-2h-3l-1 2-2-6-5-1-7-2v2l-3 1v-2l-4 1-1-3-7 1-1-6h-2l-1 2-5-5-9-5-2-4 7-8 8-7 8-8z" fill="#9F6914"/>
<path transform="translate(473,737)" d="m0 0 4 3h3l-1 4 4 2h3l1 4 5 4h1l3 1 2-2 3 2 4-1 2 3 5-1 2 1 4-1-1 4 1-1 5-1 2 4 3 1v-4l8-1 3-1v-1h5l5 1 1-3 4 2 1 2 4-1 1 4 3-1 1 2h3 1l3-2-2 4-7 7h-2l-2 4-17 17h-2l-2 4-3 3-4-1-57-57z" fill="#8A5209"/>
<path transform="translate(755,560)" d="m0 0 4 1-4 3v3h4l1 3-37 37-5-2-7-7v-2l-4-2-4-4v-2l-4-2-5-6 2-1 2-4 7-7 10-5 1 4 7-4h6v2h2v-2h2v2h2v-2h2l1 3 5-2h1 3l3-2h2z" fill="#BE8826"/>
<path transform="translate(592,683)" d="m0 0 5 1 15 16 9 9-2 4-8 8-1 2-6 2-2-2-1 3v3l-3 2-3-3-4-1-1-4-4 3h-5l-5 1-3 1v-2l-4 1h-6l-4 1 1-3-4-2 8-7 6-8 3-1 2-6 12-12z" fill="#9F6A14"/>
<path transform="translate(373,455)" d="m0 0 5 2 6 6v2h2l7 8 7 7-1 4-6 5-1 2-7-1-1 5-4 2-4 1-5 1v-2l-3 1 2 1-2 3-5 1-3-2-8 2-5-3v-3l2-1-2-5-3 2-1 3-3-2 1-2-6 5v-3l5-6 5-5z" fill="#03678A"/>
<path transform="translate(786,497)" d="m0 0 4 3 4 2 15 15-2 4-7 8-7 6-1-2 2-2-4 1v2l-4-1v-3h2v-2l-6 5h-9l-5-1-1-2h-3v2h-2l-1-4h-6l-2 5-5-5-6 7-5 2 6-7 11-11-1-4-6-6 1-3h2l3-5 2-3 2 4h3 10v-2l13 1 2-1z" fill="#E3B24A"/>
<path transform="translate(615,565)" d="m0 0h2l6 16 8 11 11 7 29 1 8 7 8 8v2h-55l-9-4-7-6-6-12-1-6v-9l3-10z" fill="#8A5209"/>
<path transform="translate(568,436)" d="m0 0h3v28l-2-4-1-5-2-1v-2h-2v3l-5 2-2-1-1 3h-3l-2-1v-2h-2l-1 2-4-1 1 4-4-1v3h-2v-2l-8-2v2l-7 3-2 1h-7l-3 2-1-2h-7l-1 3-5 1-2 3-6 1-3-1-2 1-4-1-5 1-6 1 2 3-3 1-1 2h-3l-4-2h-10l-1 2v-2h-2v-2l-6 5-7 8-8 7-3 3-2-1 24-24 24-8 20-6 9-3 48-15z" fill="#ECC057"/>
<path transform="translate(359,577)" d="m0 0h132l8 3 8 6 7 9 3 8v5l-7-14-4-4-1-2-3-1-3-3-5-1-1 3-9-1-6 2-13-1-19-1v-2l-4 2-3 1h-8l-7 2h-7l-7-3v-2l-10 1-2 4h-21l-10-1-3-2 1-4 2-1-9 1-2 2 1 2-3 3h-3v6l-1 6 3 10-4-4-2-4v-13l3-6 6-5z" fill="#FBDB7A"/>
<path transform="translate(622,426)" d="m0 0h11l6 3 5 5 3 5v13l-4 7-6 5-5 2h-11l-8-5-4-5-2-5v-10l4-8 8-6z" fill="#000D26"/>
<path transform="translate(487,575)" d="m0 0h7l4 1v2l5 2 9 8 4 7 3 9 1 6v8l-5 1v2h-2l-1 4-6 1-1-4h7l-1-2-15-1v2l-16-1v5l-10 1h-7l-6-1v-2l6-3h-10l3 2h-38l-3-1v2h-7v-3l-3-1v2l-3 1-5-2-5-1v2l-7 1h-21l-2-2 1-2-11 1v-3l2-1-5-2-2-3-1-4-3 1 1-5v-13l4-3v16l5 8 5 4 7 2 153 1-2-14-4-9-5-6v-2l-4-2-8-5-4-1-129-1v-1z" fill="#171B1C"/>
<path transform="translate(347,428)" d="m0 0 4 2 13 13 7 8 3 4-16 16-1-3 1-2-4 1-1-3h2l-1-6 2-6 5-2v-2l-5 2-5 4-3 4-1 4-7 2-1 3-6-1-3 3-5 3-4 1-2 4-2-2-1-4 2-3 5-2 1-2h2l1-5 3-1 1-4 3 2 1-5 8-6 4-2 1-3 5-1-1-4-5-1-8 9-2 1-1 4-5 1-3 6-8 6-1 4h-3-3l-1 4-2 4-6 1-2 5-5 2 2-4 24-24 7-8 12-12h2l2-4z" fill="#FBDA78"/>
<path transform="translate(410,635)" d="m0 0 21 2 69 1 28-1v2h6l3 2 5 1v-2h2l-1 6 6 4v4l-4-2-10-10-2-1h-128l12 11 3 2 128 1-1 2-3 1-2 3h-13l-2-4h-12v2l-4 2h-16l-9-2-20-1h-9l-2 1 3 2-3 1h-7l-5-1h-12l-12-1-2-2v-3h-2v-2l-5 1-2-5-4 2-1 2h-3l1-5 2-2 2-1-4-6 1-2h5z" fill="#021020"/>
<path transform="translate(530,239)" d="m0 0 6 1 5 5 3 4 4 1 1 4 3 1 2 2 1 4 4 1 1-2 5-1 3 3-1 1h-7l5 5 7 9 3-3h6l4 2-1 3-7 2 3 2v2l3 1 4 6 3 2 3-4 6 1 2 1-1 4h-6l-2-1 5 6 8 8 2-2 7-1 3 3-1 2-7 1 4 4v2l3 1 3 6 5-1-1 5h-3l-10-10-7-8-70-70-2-1-2 4-47 47-7 8-37 37-7 8-4 3-1-1v-5l3-3h3l3-7 6-3 2-4 6-4 5-6h2l2-4 4-5 7-6 4-4v-4l6-3 2-6 8-1 2-4 5-5 4-6h2l1-2 2-1 2-4 7-6 5-5h2l1-6 3-1v2h3z" fill="#0C161F"/>
<path transform="translate(315,536)" d="m0 0 5 3v2l3 1v2h4l-1-6h-2v-2l6 2 3 3v2h2l1 3-3 1-2 4-19 19-4-1-4-5-15-15-2-5h4l3-4 4 1v-2l-2-1h3v2l4 2 5-1 1-1h-3v-2l7-1 2 1z" fill="#CE9935"/>
<path transform="translate(380,394)" d="m0 0 4 1 12 12 7 8 5 4 3-1v-2h2l1-3 2 3-3 1-2 8-7 1-1 4-6-1v-2h-3v2h-2l1 6-7-6-19-19 2-5 6-5z" fill="#018A9C"/>
<path transform="translate(284,494)" d="m0 0 5 1v3h-2l-1 5-5 4-1 3h2v2h9v-2h4l1 3 2 1 1-2h4l1-2 4 2 5 2v-4l10-5-2 4-7 7 1 4 22 22v3h-2v-2h-2l-7-9-5-5-7-6v-2l-4-1-2 3h-21v-3l-2-1v2l-8 1v2l-5 1v3l-1 2-11-11 2-4 13-13 6-7 1 3z" fill="#EABD55"/>
<path transform="translate(346,425)" d="m0 0 5 2 3 4 4 2 3 5h2v3l4 2 2 2v3l3 1-1 3-7-7-7-8-8-8-4 2-20 20-7 8-40 40-5 6h-2l-2 4-8 8 2 4 5 5v2l4 2 7 8 26 26 4 5 3 1-1 2-5-3v-2l-5-2-4-5-4-2-4-5v-2l-5-1-2 2-1 2h-5l-1-3-3-2v-3h2l3 3 4-2-1-3-2-1-1-3h-4l-5-5-2-4-2-1v-3l-4-2-3-5 1-5 18-18 7-8 6-5-1-4 5-7 7 1 2-4 4-5 10-10 8-7 2-1v-2l-3-1 1-4h3v4l4-1 1-4 3-1 9-11zm-10 120v3l-3 4h-2l-1 3-5 2 6-7zm-12 12m-32 1m31 0m-32 1m31 0m-1 1m-1 1m-1 1m-1 1m-1 1m-1 1m-1 1 1 2-2-1z" fill="#0F171E"/>
<path transform="translate(583,484)" d="m0 0h5l-4 2-1 7h6l4-2 5 2v2h-3v2l7-1 2-2v2l4-1v2l-9 2-2 3-13 4-9 3h-3v-2l-6-1h-6l-1-4-11-1-4-1-1 2-2-6 8-4 19-5h11v4h2v-5z" fill="#E2B149"/>
<path transform="translate(446,678)" d="m0 0h21l10 7-1 3-4-4-4 2-8 7-8 8-5 3h-2l-1 2-4 2-2-3-5-3-3-7 3-7h3l2-4 3-4z" fill="#02203E"/>
<path transform="translate(656,365)" d="m0 0 7 6 20 20v2l-5 5-2 3-4 1-9-8-12-6-12-3v-3h2l2-4z" fill="#FAD876"/>
<path transform="translate(593,678)" d="m0 0h26l5 3 1 6 4 2 6 5-1 4h-2l-2 4-2 3-7 1-5-5-12-11-3-5-3-1-2-2h-4z" fill="#012241"/>
<path transform="translate(442,645)" d="m0 0 9 1h15v3l11 1 16-1 9 1 2 2 6-2h18l2 1v2l7-1 4-3 4 2 4 4h-126l-1-2h23v-1h9l2-1-10-1-7-2-8 2-2-1v-2l2-1z" fill="#FBDB7A"/>
<path transform="translate(786,497)" d="m0 0 4 3 4 2 7 7-1 2-3-2-6 4-4-1-9 1-6-1h-3l-1 2v-2l-4-1-3-1-1 2-5 1 3 5-1 3-3 1v-3l-1-4-6-6 1-3h2l3-5 2-3 2 4h3 10v-2l13 1 2-1z" fill="#EBBD55"/>
<path transform="translate(470,683)" d="m0 0 4 2 11 12 6 5 5 9h-5l-2-2v2h-5l-2-2 1-5h-11l-1-4h-2v2h-2l1 4h-5v-4h-6v2h-5l-1-2 7-8 8-8z" fill="#BA8424"/>
<path transform="translate(471,459)" d="m0 0h8v2l6-1 1 2-38 12-8 7-34 34h-2l-1 3-8 7-20 20-4 5-4 1 1-3h2l2-4 7-6 5-6 3-4 3-1 7-8 7-7 8-7 4-5 1-3-1-3 6 1 2-4 2-3-1-4 3-1 4 2 1-6 6-3 2-3h2v-2l5-2v-3h9l4 1 1-4 5 1 2-4z" fill="#0E161E"/>
<path transform="translate(533,239)" d="m0 0 6 3 5 7 4 1 1 4 3 1 2 2 1 4 4 1 1-2 5-1 3 3-1 1h-7l5 5 7 9 3-3h6l4 2-1 3-7 2 3 2v2l3 1 4 6 3 2 3-4 6 1 2 1-1 4h-6l-2-1 5 6 8 8 2-2 7-1 3 3-1 2-7 1 4 4v2l3 1 3 6 5-1-1 5h-3l-10-10-7-8-70-70z" fill="#06121F"/>
<path transform="translate(623,404)" d="m0 0 15 6 5-1 2 2 3 4v2l4 2 5 7 21 2 2 3-24-2-9-10-6-4-6-2h-14l-11 4-9 8-5 10-1 5v13l-3-1-1-17 1-3 3-3 1-5v-5l6 2 1-5 7-2v-2l5-1-1-4z" fill="#0C151E"/>
<path transform="translate(596,681)" d="m0 0 6 4 6 8 9 8 5 6 1 4-2 3h-2l-1 5-4 2-3 4h-2v2l-7 6 4 2v7l-1 2h-2l-1 3-4 3h-5l-1-4 2-1 6-1 1-8-3 1-16 16-4 5-8 7-7 8-8 7-6 6-1 3-6 4-2 3h-2l-2 4-3-1 6-7 8-7 17-17 7-8 8-7 4-5 8-7 11-11 3-4h2l1-3h2l2-4 8-8-2-4-16-16-7-8z" fill="#011020"/>
<path transform="translate(368,552)" d="m0 0h123l12 3-2 2-2 3-3-1v-2h-6l-6-1-5-2h-13l-2 2h-17l-2-1v-2h-9v2h-26l-12 1h-26z" fill="#011020"/>
<path transform="translate(723,430)" d="m0 0 3 1 3 5 20 20-9 10-11 11-1-2 1-5v-20l-3-13-3-5z" fill="#018B9C"/>
<path transform="translate(357,572)" d="m0 0h9l5 1h37v2l6-1 4-1h61v2h8v1l-125 1-9 4-5 5-1-2 2-4 6-4v-3z" fill="#04111F"/>
<path transform="translate(404,640)" d="m0 0h129l-3 7-2-1v-4l-47 1v1h-9l-16-2v2l-9 1-4-2-28-1-1 4 4 2h3l-1 4h2l1 3-4-1-8-7-7-6z" fill="#FBD977"/>
<path transform="translate(410,635)" d="m0 0 21 2 69 1 28-1v2h6l3 2 5 1v-2h2l-1 6 6 4v4l-4-2-10-10-2-1-131-1v-3h5z" fill="#000F20"/>
<path transform="translate(598,478)" d="m0 0h3l-1 10h4l6 1 1 4-1 2h5l-3 2-13 4-2-1 4-2 7-1-4-1-4 1h-5v-2h3v-2l-7-1-2 2h-6l-1-3 2-6-2 2-1 4h-2v-4l-7 1v-2l7-3 17-4z" fill="#EBBE56"/>
<path transform="translate(793,501)" d="m0 0 5 1 9 9 4 5-2 7-4 6v5l-3 3h-4l-1 5-2 1-1 3h-4v2l-3-1-5 5v5l-5 1-1 3h-4l-3-1 7-8 7-6 7-8 15-15 3-4-2-4-13-13z" fill="#05121F"/>
<path transform="translate(258,518)" d="m0 0 5 3 5 5v2l4 2 7 8 26 26 4 5 3 1-1 2-5-3v-2l-5-2-4-5-4-2-4-5v-2l-5-1-2 2-1 2h-5l-1-3-3-2v-3h2l3 3 4-2-1-3-2-1-1-3h-4l-5-5-2-4-2-1v-3l-4-2-3-5zm78 27v3l-3 4h-2l-1 3-5 2 6-7zm-12 12m-32 1m31 0m-32 1m31 0m-1 1m-1 1m-1 1m-1 1m-1 1m-1 1m-1 1 1 2-2-1z" fill="#07131F"/>
<path transform="translate(442,709)" d="m0 0 47 47v2l4 2 38 38v2h-2v-2l-5-2-5-6-4-3v-2l-3-1-1-3-3-1-4-5-5-4v-2h-3l-2-4-5-5-6-5v-2l-6-1 1-4-4-2-2-2-6-8-7-6v-2h-4l-4-6h-4l1-3-6-3-1-6z" fill="#000F20"/>
<path transform="translate(583,592)" d="m0 0h2l4 14 3-1v9l2 4 3 2 2 4 2 1v2h2v2l4 2 5-1-1 3 4 1v2h8 2l2-1 7 1 5-2 1-2h5l3 4v4h-29l-10-4-8-6-7-7-6-10-4-11z" fill="#0A141E"/>
<path transform="translate(415,642)" d="m0 0h33l-3 3-3 1-13 1v2l11-2 9 2 11 2v1l-12 1v1l-26-1-2-1-1-4-1 2-5-4z" fill="#FACC63"/>
<path transform="translate(760,455)" d="m0 0 4 1 1 2v6l-3 3 5 4v-5h6l4 2-1 4h-5l-1 3h2l5 5 2 4h3l1-2h6l4 2-1 4h-6l2 4 4 3 2 4-2 2-35-35-7-8 1-2 6 4 1 4 2-1z" fill="#10171D"/>
<path transform="translate(622,426)" d="m0 0h11l6 3 5 5 3 5v13l-2-1v-3h-3l1-10-6-1-1-5-4-3-9-1v2h4l-1 3-4-1-1 5-3 1v-5l-3-1v2h-2l-1 6-2 1v7l3 9 2 2h4v3h2l1 4-8-4-5-6-2-5v-10l4-8 8-6zm19 22 1 2-2-1z" fill="#0A141E"/>
<path transform="translate(556,608)" d="m0 0 10 20 7 9 1 3h2v2l4 2 9 6 6 3-1 3-6-2-8-1-6-5v-2h-5l-1-2h-4v-3-3l-2-4 3-3-4-3-2-9h-2l-2-9z" fill="#0D151E"/>
<path transform="translate(515,604)" d="m0 0 3 3v10h-153v-1l12-1h138z" fill="#EBBE55"/>
<path transform="translate(597,654)" d="m0 0 66 1-1 2h-5l-1 4h-30l-3-3h-8l-4 1h-4v-2h-7l-3-1z" fill="#01101F"/>
<path transform="translate(647,359)" d="m0 0 6 2 4 3-7 8-8 8-3 4 12 3 12 6 7 6v2l-6-2v-2l-6-3 1 3-6-2v-3l2-1-7-1-3-2h-5l-3 1h-3l-1-7 9-7-2-7 2-1 1 2 5-2 1-2-3-4z" fill="#031221"/>
<path transform="translate(590,533)" d="m0 0 3 1 1 5h2l-1 4-6 13-4 13-1 5v23l4 13 6 11 7 8 5 5-3 1-7-6-2-5h-2l-3-3-1-4-1-3-2-2-4-14v-26h2l-1-5 7-18 1-4h-2l-1-6 2-2z" fill="#F8D572"/>
<path transform="translate(609,570)" d="m0 0h3l-2 10v9l2 9 6 10 8 6 6 2 56 1v2l-40 1h-17l-6 3h-3l-1-2 1-2h4l1-3-4-1-6-4-8-11-1-3v-26z" fill="#011020"/>
<path transform="translate(422,342)" d="m0 0 2 2 1 2 2 2-28 28-9 10-8 8-3-1 3-4 3-1 3-5 4-4h2l1-5 5-2v-2h2l1-4-3-1v-3l6-3v3l4-1 1-5h-2l2-4 3 2h3l2-4-2-4z" fill="#0C161F"/>
<path transform="translate(569,531)" d="m0 0 4 1v3h5l-5 5-7 6-6 10-5 16-2 20-2-1v-5h-2v-4h2l-1-5-2-1 2-16h2l1 3h2l1-8 1-2h2l2-5 3-3v-3l5-3h2v-2l-4-4z" fill="#0C151E"/>
<path transform="translate(612,561)" d="m0 0 6 3 5 13v2h2l4 6 3 4v2l4 2 10 2 1 3h26l10 8v3l4 4-1 2-13-13-2-1-29-1-11-7-8-10-5-12-1-6-5 5z" fill="#011020"/>
<path transform="translate(669,478)" d="m0 0 2 1-3 3 2 4-3 1v3l-5 1-1-2 1-3-9 1-10 2 3 4-2 1h-8l-1-2-4 3h-10v-2z" fill="#0B151E"/>
<path transform="translate(568,545)" d="m0 0 3 4-1 3-3-1v3l-2 4h-3l-5 12-1 6v21l2 6 2 9 2 5 2 1 2 9 2 1 5 7-1 2-7-9-8-16-3-12-1-8v-11l2-13 4-12 4-7z" fill="#F8D472"/>
<path transform="translate(420,401)" d="m0 0 2 1v1l2 1-10 10-1 2h-2v2l-4 2-11-11-3-4v-2l3-1v2l4 2 1 2 5-3 1 3 3 1v-3l4 1 2 1v-4z" fill="#F7D26E"/>
<path transform="translate(521,368)" d="m0 0 1 2-7 8-17 17-7 6-7 8-44 44v-3l45-45 1-3 8-7 16-16h2v-3l8-7z" fill="#011835"/>
<path transform="translate(593,686)" d="m0 0 6 2 5 4 1 4 2 2h-2v6h-2v-2h-5l-4-5v-3l-5 1 1 4 3 2-4 1-3-1 1-5-1-4 3-1 1-3z" fill="#BE8926"/>
<path transform="translate(572,509)" d="m0 0 2 1-3 3-6 5-4 1-6 4-2 4h-3l-2 5-5 5-2 5h-2l-2 9-3 8 2 4v3h-3l-2 9h-1v-11l4-15 6-12 10-13 13-10z" fill="#011020"/>
<path transform="translate(414,573)" d="m0 0h65v2h8v1h-73z" fill="#011020"/>
<path transform="translate(648,601)" d="m0 0h25l14 14v2l-6-1h-8l-2-1-5-1 1-3 4-1 1-2-3-3h2v-2l-23-1z" fill="#915A0B"/>
<path transform="translate(572,432)" d="m0 0 1 2 2 1-2 3 1 3 3 1v4l-6-1 2 9h2v6l-1 1 2 11 4 2 2 5-1 2 3 1-4 1-2-5h-2l-4-10-2-9v-20l1-3h-2l1-3z" fill="#11181D"/>
<path transform="translate(650,644)" d="m0 0 4 2 9 8v1h-59v-1l20-2v2l17-2v-3l7 3h4l2-3-5-3z" fill="#FBDA79"/>
<path transform="translate(334,551)" d="m0 0 2 1-1 5-3 3h-4l-1 6-5 3h-2l-2 5-5 3-3-1 2-5 2-3h2l2-4 7-7 1 3 5-4 1-2h2z" fill="#000F20"/>
<path transform="translate(681,446)" d="m0 0 6 2 2 3-1 6-4 3h-5l-4-5 1-6z" fill="#000E27"/>
<path transform="translate(404,640)" d="m0 0h128l-2 1-1 2v-2l-118 1v2l-3 1z" fill="#EBBF56"/>
<path transform="translate(388,519)" d="m0 0h3l-1 5-5 5-1 5-5 5-7 2h-2v2h-2l1-4 3-4h3l1-4 7-4z" fill="#000D26"/>
<path transform="translate(683,392)" d="m0 0h2l4 5v2l3 1 6 8-9-3-15-3 2-1 2-4z" fill="#018A9C"/>
<path transform="translate(729,450)" d="m0 0h1v20l-3 10-4 5-2-1-1-4-2-2 2-1 3-7 1-3h2v-2l2-2z" fill="#02182D"/>
<path transform="translate(552,783)" d="m0 0 6 1-1 6 4 3-2 4h-6l-4 4h-5l-1-4 8-6 1-1z" fill="#011020"/>
<path transform="translate(520,637)" d="m0 0h8v2h6l3 2 5 1v-2h2l-1 6 6 4v4l-4-2-10-10-2-1-33-1 1-2z" fill="#03111F"/>
<path transform="translate(594,456)" d="m0 0h2l3 8 9 10 1 2-21 6h-2v-2l8-4 9-1v-4l-4-2-3-4-5 1 1-6h2l-1-3z" fill="#12181D"/>
<path transform="translate(606,527)" d="m0 0 1 2-2 4h-3l-1 5h-2v4h-2l-2 7-3 5-1 5-2 1-1 10-4 7-1-3 4-15 5-12 9-15z" fill="#151A1C"/>
<path transform="translate(359,577)" d="m0 0 3 1-1 2-5 3 1 2-3 3h-3v6l-1 6 3 10-4-4-2-4v-13l3-6 6-5z" fill="#F9D876"/>
<path transform="translate(748,456)" d="m0 0 7 6 11 12 15 15-2 2-6-7-16-16h-3l-2-6-6 2-2 1 2 4h-2l-2-3 1-5z" fill="#F9D774"/>
<path transform="translate(705,500)" d="m0 0 2 1-7 8-27 27h-2v2l-6 4 2-4 3-1 2-5 5-3 3-4v-2h2l1-3 8-5 5-6 2-4 4-1z" fill="#012140"/>
<path transform="translate(737,468)" d="m0 0 3 1-5 5-3 2-4 8 2 4 5 4 2 4 3 2 6 7v3l-23-23 6-9z" fill="#F7D36F"/>
<path transform="translate(596,681)" d="m0 0 6 4 6 8 9 8 5 6 1 4-2 3-3-1 2-4-18-18-7-8z" fill="#000F21"/>
<path transform="translate(783,482)" d="m0 0h6l4 2-1 4h-6l2 4 4 3 2 4-2 2-14-14v-2l4-1z" fill="#13181C"/>
<path transform="translate(768,560)" d="m0 0 1 3-5 6 4-1-2 5-2 2h-3l-2-2-3 4-1 2-4 2-2 3h-2l-2 4-6 5-2-1 27-27z" fill="#011020"/>
<path transform="translate(471,459)" d="m0 0h8v2l6-1 1 2-22 7-3-1 1-5 5 1 2-4z" fill="#10171D"/>
<path transform="translate(487,575)" d="m0 0h7l4 1v2l5 2 9 8 4 7 3 9v6l-2-3-4-12-6-7v-2l-4-2-8-5-8-2z" fill="#181B1C"/>
<path transform="translate(616,429)" d="m0 0m-2 1 2 1-1 3h-2l-1 6-2 1v7l3 9 2 2h4v3h2l1 4-8-4-5-6-2-5v-10l4-8z" fill="#13191D"/>
<path transform="translate(694,580)" d="m0 0 10 10 7 6 4 6h-3v-2h-6l-2-1v-6l-4-1-5 1-3-1v-2l5-1-1-4-3-3z" fill="#02101F"/>
<path transform="translate(398,511)" d="m0 0 3 1-1 6-10 10-6 3 2-5 4-3 1-7 4-2v-2z" fill="#000E27"/>
<path transform="translate(568,545)" d="m0 0 3 4-1 3-3-1v3l-2 4h-3l-6 15-2 1 4-16 5-9z" fill="#FAD876"/>
<path transform="translate(284,494)" d="m0 0 5 1v3h-2l-1 5-5 4h-2l-1-4-6 5-2-1 5-5 6-7 1 3z" fill="#EDC25A"/>
<path transform="translate(684,430)" d="m0 0 5 1 8 4 7 8 4 11v10l-2 1-2-15-6-10-10-6-6-2z" fill="#211F1A"/>
<path transform="translate(532,640)" d="m0 0m-65 1h65l-2 6-2-1v-4l-47 1v1h-9l-5-1z" fill="#FBDB7A"/>
<path transform="translate(549,438)" d="m0 0h7l2 2-31 9 1-4 8-2 2-4 5 1 4 1v-2z" fill="#0F171D"/>
<path transform="translate(473,737)" d="m0 0 4 3h3l-1 4 4 2h3l1 4 5 4-2 3h3v2h2l2 4-4-2-20-20z" fill="#8C5409"/>
<path transform="translate(521,368)" d="m0 0 1 2-7 8-17 17-7 6-1 2-4 1v-2l8-7 16-16h2v-3l8-7z" fill="#02375A"/>
<path transform="translate(650,371)" d="m0 0v3h8l3 1-2 5-1-3-4-1v2l2 1-6 4h-2l-1-5-4 4v3l-5-1 1-2h2l2-4z" fill="#F9CB62"/>
<path transform="translate(574,393)" d="m0 0 3 1 3 9 9-9 2 1-5 5-2 5-4 3-5-6-3-3-1-5z" fill="#036E8D"/>
<path transform="translate(640,487)" d="m0 0h3l3 6-2 1h-8l-1-2-4 3h-10v-2z" fill="#06121F"/>
<path transform="translate(501,451)" d="m0 0 10 1 1 2-21 6-3 1 1-3 5-1v-4z" fill="#141A1D"/>
<path transform="translate(620,722)" d="m0 0 2 3-1 4-4 2v2l-11 2 1-6 9-2 2-4z" fill="#011020"/>
<path transform="translate(643,385)" d="m0 0 11 3 12 7 4 4v2l-6-2v-2l-6-3 1 3-6-2v-3l2-1-7-1z" fill="#10171D"/>
<path transform="translate(436,450)" d="m0 0 2 3-3 3h-2l-2 4-7 6-5-3-3-4 3-2 2 4 4-1 3-3h3l1-4z" fill="#045A7F"/>
<path transform="translate(700,468)" d="m0 0 3 1-1 2 2 1v3l-6 3h-7v-2l3-3h-3v-2z" fill="#011020"/>
<path transform="translate(503,556)" d="m0 0 7 2 11 8 7 7v2l-6 1v-2l2-2-5-4-1 2h2l-1 3-4-4 2-1-1-4-3 1-1-4-7-2z" fill="#011020"/>
<path transform="translate(703,448)" d="m0 0 2 2 1 4v13l-4-1 3-1-4-1-4-7v-2l4-1z" fill="#FBDA78"/>
<path transform="translate(571,769)" d="m0 0 3 2v2h-2l1 3h-2l-1 4-4 3-5-1-1-5 7-1z" fill="#011020"/>
<path transform="translate(585,609)" d="m0 0 3 1 6 11 7 8 5 5-3 1-7-6-2-5h-2l-3-3-1-4-1-3-2-2z" fill="#F8D673"/>
<path transform="translate(793,501)" d="m0 0 5 1 9 9 4 5-2 5-3 2 2-6-15-15z" fill="#201F1A"/>
<path transform="translate(569,531)" d="m0 0 4 1v3h5l-5 5-7 6-2 2-1-5 3-3 5-1v-2l-4-4z" fill="#0A141E"/>
<path transform="translate(345,466)" d="m0 0h8l1 4-3 3v-2l-7 2-4 4-1-3 4-6z" fill="#FCDC7B"/>
<path transform="translate(604,537)" d="m0 0h2l-1 4-1 3h2v5l-4 7-2-1-1-4 2-7 1-6z" fill="#011020"/>
<path transform="translate(323,527)" d="m0 0 4 2 3 3h5l2 6h3l1 3-3 3-15-15z" fill="#025479"/>
<path transform="translate(587,752)" d="m0 0 3 1-1 5-2 3h-2l-2 4-3 1-4-1v-3l8-2 2-7z" fill="#011020"/>
<path transform="translate(618,494)" d="m0 0 2 1-1 2h-4v2l-13 3-3 2-7 1v-3l17-5z" fill="#1A1C1B"/>
<path transform="translate(658,364)" d="m0 0h3v2l2 1 4 4v2l5-1 2 7-2 2-15-15z" fill="#201F1A"/>
<path transform="translate(601,722)" d="m0 0 4 2h3l-7 8-7 2-3-4 1-3 4 1 3 2 2-3v-4z" fill="#96600E"/>
<path transform="translate(388,519)" d="m0 0h3l-1 5-5 5-4 3-1 3h-5l1-4 7-4z" fill="#011020"/>
<path transform="translate(791,501)" d="m0 0 4 2 6 6-1 2-3-2-4 2-6-1 1-5 5-1z" fill="#F4CA62"/>
<path transform="translate(683,377)" d="m0 0 2 1 1 6-3 3-2-1v2l2 1h-3l-7-7 3-3 2 5 3-2z" fill="#13191D"/>
<path transform="translate(576,550)" d="m0 0 4 1 2 1v7l-5 1-3-1-1-5z" fill="#FBDB7A"/>
<path transform="translate(616,499)" d="m0 0h2l1 5-5 5-4 1-6-3-1-3h5l3 1 5-2-2-3z" fill="#011020"/>
<path transform="translate(355,465)" d="m0 0 3 1-2 7-12 12h-2l2-4 4-5 4-4v-2h2l-1-4z" fill="#F8D06B"/>
<path transform="translate(622,426)" d="m0 0h7l-4 2h-2v2h4l-1 3-4-1-1 5-3 1v-5l-3-2 4-4z" fill="#05121F"/>
<path transform="translate(549,591)" d="m0 0h1l2 8v5l1-1-1-8 2-3 1 13-3 3h-2l-2-7v-9z" fill="#0C151E"/>
<path transform="translate(722,485)" d="m0 0 4 2 3 4-3 2h-4v4l-5 2-2-2h2l1-4 3-1v-2l2-2z" fill="#03688A"/>
<path transform="translate(716,454)" d="m0 0 2 1v11l-2 6h-4l2-14z" fill="#011020"/>
<path transform="translate(534,644)" d="m0 0 3 1v2l3 3-2 1-1 2h-7v-2l-2-1h2v-3z" fill="#F9CC63"/>
<path transform="translate(681,446)" d="m0 0h2v2l-4 1v7l4 1 4-3 2-3-1 6-4 3h-5l-4-5 1-6z" fill="#26221A"/>
<path transform="translate(572,432)" d="m0 0 1 2 2 1-2 3 1 3 3 1v4l-6-1v6h-1v-12l1-3h-2l1-3z" fill="#011020"/>
<path transform="translate(693,437)" d="m0 0 5 2 5 7v2l-5-2-6-4v-3l-3 1-1-2z" fill="#F9D26D"/>
<path transform="translate(736,593)" d="m0 0v3l-3 4h-2l-1 3h-2l-1 5h-7-4l-3-1 2-2 1-3 5 4 4-2z" fill="#011020"/>
<path transform="translate(588,572)" d="m0 0h2v4h-2v8l-2 3v-2h-2v7h-1v-15l4-2z" fill="#011020"/>
<path transform="translate(534,640)" d="m0 0 8 2v-2h2l-1 6 6 4v4l-4-2-11-11z" fill="#05121F"/>
<path transform="translate(554,529)" d="m0 0 3 1 1 3-1 3h-5l-1 5-4 1-3-1 1-3 6-1v-2h2z" fill="#011020"/>
<path transform="translate(448,466)" d="m0 0h9l4 2v2l-7 2-5-1z" fill="#0A141F"/>
<path transform="translate(590,533)" d="m0 0 3 1 1 5h2l-1 4-5-1v3h-2l-1-6 2-2z" fill="#FAD977"/>
<path transform="translate(607,489)" d="m0 0h3l1 4-1 2h5l-3 2-13 4-2-1 4-2 7-1-4-1 1-3z" fill="#EFC25A"/>
<path transform="translate(737,468)" d="m0 0 3 1-5 5-3 2-4 8-4 2v-3l6-8z" fill="#F5D06C"/>
<path transform="translate(380,423)" d="m0 0 7 6 13 13-1 3-1-3-3 1-7-10-8-8z" fill="#012342"/>
<path transform="translate(452,727)" d="m0 0 3 1v4l5 2v3l-5-1-7-5z" fill="#000F20"/>
<path transform="translate(486,448)" d="m0 0 5 1-1 3-6 2v4h-4v-6z" fill="#000F20"/>
<path transform="translate(605,634)" d="m0 0 6 2 8 3 22 1v1h-24l-10-3-4-2z" fill="#F4CE69"/>
<path transform="translate(645,452)" d="m0 0 1 3-7 8-9 3 6-7 4-1z" fill="#201F1A"/>
<path transform="translate(347,428)" d="m0 0 3 1-1 2-5 2 2-4zm-5 5 2 1-20 20 1-4z" fill="#F3CC66"/>
<path transform="translate(533,364)" d="m0 0 4 1-1 3-4 2-2 5h-2l-1 2-2-4 4-5h2v-2h2z" fill="#011020"/>
<path transform="translate(529,685)" d="m0 0h5v2l3 1-1 4h-7l-2-4z" fill="#055980"/>
<path transform="translate(555,573)" d="m0 0 1 3v21l1 5-2 3-2-13v-11l1-7z" fill="#F7D36F"/>
<path transform="translate(648,456)" d="m0 0h2v6l-2 2-5-2 1 1-4 3v-5l3-3z" fill="#F7CB64"/>
<path transform="translate(688,456)" d="m0 0 1 2-3 4-5 1-2 3-2-2-4-1 3-5 8 1z" fill="#FAD876"/>
<path transform="translate(481,406)" d="m0 0 3 1-3 1-2 4-8 8-2-3 7-8 4-2z" fill="#036386"/>
<path transform="translate(608,451)" d="m0 0h2l5 8h4v3h2l1 4-8-4-5-6z" fill="#1C1D1B"/>
<path transform="translate(605,524)" d="m0 0 2 1-4 6-4 2h-3v-6z" fill="#F0C863"/>
<path transform="translate(681,536)" d="m0 0 3 1-3 2-1 3h-8v2h-3v-3l7-4z" fill="#04587F"/>
<path transform="translate(295,481)" d="m0 0 2 1v2h-3v4h-3l-2 4-5 2v4h-2l1-5z" fill="#F6CF6A"/>
<path transform="translate(593,528)" d="m0 0 4 1-1 4 6-3-2 5-3 3v-3l-3-1v-2h-5z" fill="#F9D674"/>
<path transform="translate(589,503)" d="m0 0h2v2h-4v2l-3 2-3 3-4-1-2-1v-2z" fill="#12181D"/>
<path transform="translate(592,523)" d="m0 0 9 1 1 2-17 6 2-4 5-1z" fill="#13191D"/>
<path transform="translate(442,478)" d="m0 0v3l-7 8-8 7-3 3-2-1z" fill="#EABD54"/>
<path transform="translate(704,457)" d="m0 0h1v8l-2 1 1 2-13 4-4-1 10-4 3-3h4z" fill="#F9D26D"/>
<path transform="translate(592,683)" d="m0 0 5 1 5 6-2 1-3-3-4-1-3 1-1 3-2-2z" fill="#9A6413"/>
<path transform="translate(532,559)" d="m0 0 3 1 1 6h-3l-2 9h-1v-11z" fill="#000F20"/>
<path transform="translate(336,545)" d="m0 0v3l-3 4h-2l-1 3-5 2 6-7zm-12 12m-1 1m-1 1m-1 1m-1 1m-1 1m-1 1m-1 1m-1 1m-1 1 1 2-2-1zm-2 2m-1 1m-2 1h2l-1 2z" fill="#04111F"/>
<path transform="translate(360,455)" d="m0 0 7 1 1 2-8 6-1-5z" fill="#FBCD64"/>
<path transform="translate(581,693)" d="m0 0v3l-15 15-1-2 7-8z" fill="#000F21"/>
<path transform="translate(293,558)" d="m0 0h2l1 10v3l-6-3 1-8z" fill="#000F20"/>
<path transform="translate(747,506)" d="m0 0h3 2v5l5 5 1 2-1 3-3 1v-3l-1-4-6-6z" fill="#EDC25A"/>
<path transform="translate(555,382)" d="m0 0 7 6 10 10-1 2-5-4v-2h-2l-5-5-4-2z" fill="#022D4F"/>
<path transform="translate(521,368)" d="m0 0 1 2-7 8-3 2v-4l8-7z" fill="#012241"/>
<path transform="translate(633,352)" d="m0 0h2l-2 4-15 15h-2l1-3 6-5 5-5z" fill="#012140"/>
<path transform="translate(481,695)" d="m0 0 4 2 6 5-1 2h-2l-5-1-2-4-1-3z" fill="#A36D16"/>
<path transform="translate(310,561)" d="m0 0 6 3-2 4-2 2-4-1v-5h2z" fill="#BB8526"/>
<path transform="translate(583,532)" d="m0 0 5 1-4 2-7 4v2l-5 3-2-1 5-6z" fill="#FAD977"/>
<path transform="translate(594,476)" d="m0 0h8v2l-16 4v-2z" fill="#0A141E"/>
<path transform="translate(685,393)" d="m0 0 6 2 5 8 4 4-1 3h-2l-1-4-5-6-5-5z" fill="#022F51"/>
<path transform="translate(496,775)" d="m0 0 5 3 4 5-1 2-4-1-5-6z" fill="#011020"/>
<path transform="translate(412,645)" d="m0 0 6 3h3l-1 4h2l1 3-4-1-8-7z" fill="#F9D572"/>
<path transform="translate(587,559)" d="m0 0 2 1-1 10-4 7-1-3z" fill="#181B1C"/>
<path transform="translate(572,509)" d="m0 0 2 1-3 3-6 5-4 1h-3l5-5z" fill="#0B151E"/>
<path transform="translate(796,508)" d="m0 0 7 3 6 7-5-1-6-5h-3z" fill="#E9BC54"/>
<path transform="translate(711,597)" d="m0 0 4 2 3 3 2-1 2 2 6-2-5 6-5-2-7-7z" fill="#965F10"/>
<path transform="translate(583,592)" d="m0 0h2l3 11-1 5-2-3-2-8z" fill="#191C1C"/>
<path transform="translate(590,542)" d="m0 0h4l-1 5-6 14-1-4 3-8z" fill="#F8D370"/>
<path transform="translate(634,489)" d="m0 0 2 1-5 5h-10v-2z" fill="#161A1C"/>
<path transform="translate(650,371)" d="m0 0v3l-1 2 2 1-6 2-2 4v2l-5-1 1-2h2l2-4z" fill="#F3CB66"/>
<path transform="translate(272,530)" d="m0 0 4 2 5 6 5 4 3 4-1 2-16-16z" fill="#ECC159"/>
<path transform="translate(662,643)" d="m0 0 10 3v4l-10-2-1-3z" fill="#011020"/>
<path transform="translate(596,610)" d="m0 0 5 2 2 4-3 1-6-3-2-2z" fill="#011020"/>
<path transform="translate(700,468)" d="m0 0 3 1-1 2h-2l-1 3-8-1v-2z" fill="#16191F"/>
<path transform="translate(398,511)" d="m0 0 3 1-6 7h-4l1-4 3-1v-2z" fill="#011020"/>
<path transform="translate(384,489)" d="m0 0 7 2-4 5-4 3-1-4h2z" fill="#04577E"/>
<path transform="translate(579,483)" d="m0 0h3l-1 8h-2v-4l-7 1v-2z" fill="#EABB53"/>
<path transform="translate(473,737)" d="m0 0 4 3h3l-1 4h2l-1 4-7-7z" fill="#8D550A"/>
<path transform="translate(594,624)" d="m0 0 4 2 8 7-1 2-5-2-6-7z" fill="#F6D26E"/>
<path transform="translate(591,605)" d="m0 0 1 4v9l-4-5-1-6z" fill="#0C151E"/>
<path transform="translate(598,518)" d="m0 0h6l1 3 2 2-2 2-4-1 1-2-4-2z" fill="#011122"/>
<path transform="translate(793,488)" d="m0 0 4 2 1 4-1 3 2 1-3 1-3-4z" fill="#000F20"/>
<path transform="translate(608,697)" d="m0 0 7 6 6 6-2 4-2 1 1-5-10-10z" fill="#90590B"/>
<path transform="translate(532,641)" d="m0 0 4 1 6 7-4 1-2-5-5 1z" fill="#F6D26F"/>
<path transform="translate(704,569)" d="m0 0v3 3l-5 4h-2v2l-3-1 2-1 2-4z" fill="#DEAE47"/>
<path transform="translate(683,447)" d="m0 0 4 1 1 4h-4l1 3-4-2v-4h2z" fill="#09141E"/>
<path transform="translate(376,394)" d="m0 0 2 1-2 5-6 5-4 5 1-5 4-2 1-3h2z" fill="#022A4B"/>
<path transform="translate(602,384)" d="m0 0 1 2-1 3h-2l-1 2-4 4-2 3-3-1 3-4h2l2-4z" fill="#022849"/>
<path transform="translate(634,360)" d="m0 0h3l-1 6-2 3-3-1 2-1-2-1 2-5z" fill="#011020"/>
<path transform="translate(586,690)" d="m0 0h3v2l-7 7h-3l2-4z" fill="#AB751C"/>
<path transform="translate(520,565)" d="m0 0 4 2 3 2 3-3v9h-2l-7-8z" fill="#8E560A"/>
<path transform="translate(752,521)" d="m0 0v3l-13 13-2-1z" fill="#EABD54"/>
<path transform="translate(436,454)" d="m0 0 2 2-8 7-2 3-6 1 1-2 5-3 5-6z" fill="#012241"/>
<path transform="translate(582,748)" d="m0 0v3l-9 9-4-2 3-2h1l1-2 4-2z" fill="#8A5209"/>
<path transform="translate(292,551)" d="m0 0 6 2 4 5 1 3h-3l-7-8z" fill="#D9A842"/>
<path transform="translate(549,438)" d="m0 0h7l2 2-12 3 1-4z" fill="#1B1C1B"/>
<path transform="translate(480,760)" d="m0 0 4 2 4 3v3h-4l-4-4z" fill="#011020"/>
<path transform="translate(556,608)" d="m0 0 2 4 4 10-3-1v-2h-2l-2-9z" fill="#201F1A"/>
<path transform="translate(513,594)" d="m0 0 4 2 2 8v6l-2-3z" fill="#1C1D1B"/>
<path transform="translate(759,574)" d="m0 0 1 2 4 1-5 3-3 2-4-1 4-2z" fill="#000F20"/>
<path transform="translate(372,535)" d="m0 0h3v5l-5 1v2h-2l1-4z" fill="#011020"/>
<path transform="translate(681,474)" d="m0 0 3 1-3 3-9 1v-2z" fill="#26231B"/>
<path transform="translate(405,405)" d="m0 0 2 4v3l-4 1-3-4z" fill="#F9CB62"/>
<path transform="translate(642,397)" d="m0 0 5 1v3h-11l3-3z" fill="#011020"/>
<path transform="translate(392,387)" d="m0 0 1 2-1 3 2 1-5 2-3-1v-2z" fill="#F9CC64"/>
<path transform="translate(392,619)" d="m0 0h7l1 4h-9z" fill="#000E23"/>
<path transform="translate(515,604)" d="m0 0 3 3v10h-2l-1-2z" fill="#EEC55D"/>
<path transform="translate(606,527)" d="m0 0 1 2-2 4h-3l-1 5-4 2 2-5 4-6z" fill="#21201A"/>
<path transform="translate(639,462)" d="m0 0 2 1-1 6-6-1 1-4z" fill="#F9D36E"/>
<path transform="translate(726,432)" d="m0 0 6 4v2h3l3 5-1 2-11-11z" fill="#012241"/>
<path transform="translate(410,406)" d="m0 0 4 1 2 2-6 5-1-5z" fill="#FBCD64"/>
<path transform="translate(426,338)" d="m0 0h2l-1 9h-4l-1-6z" fill="#001026"/>
<path transform="translate(601,722)" d="m0 0 4 2h3l-6 7-1-4v-4z" fill="#8F580B"/>
<path transform="translate(265,519)" d="m0 0 5 2v3l2 6-4-2-3-5z" fill="#ECBF57"/>
<path transform="translate(625,459)" d="m0 0 2 1v4l4 1-1 1h-8l2-4z" fill="#000F20"/>
<path transform="translate(596,681)" d="m0 0 6 4 2 2v3l-4-2-5-6z" fill="#000E23"/>
<path transform="translate(541,646)" d="m0 0 6 2 2 4v2l-4-2-4-4z" fill="#24211A"/>
<path transform="translate(540,560)" d="m0 0h6v5l-5 1z" fill="#011020"/>
<path transform="translate(373,455)" d="m0 0 3 1 3 5-3 1v-3l-4-1-1 3-3-1z" fill="#018B9D"/>
<path transform="translate(525,447)" d="m0 0m-6 1h6l-1 2-11 3 1-3z" fill="#1A1C1C"/>
<path transform="translate(426,391)" d="m0 0 3 1-2 4-2 2h-2v-6z" fill="#FBCD64"/>
<path transform="translate(356,472)" d="m0 0v3l-4 5h-2v2h-2l-1 2v-3z" fill="#017991"/>
<path transform="translate(431,646)" d="m0 0h8v2l-8 2-2-1v-2z" fill="#FCDC7B"/>
<path transform="translate(749,526)" d="m0 0 1 3 2 2-1 2-5-1v-3z" fill="#D39F39"/>
<path transform="translate(599,500)" d="m0 0h3l-1 3-9 2v-3z" fill="#0B151E"/>
<path transform="translate(809,499)" d="m0 0h3v7l-4-2v-4z" fill="#011020"/>
<path transform="translate(612,490)" d="m0 0h7l6 2-3 1h-6-1-3z" fill="#E9BC53"/>
<path transform="translate(617,451)" d="m0 0h4v5l-3 1-3-3v-2z" fill="#011020"/>
<path transform="translate(572,432)" d="m0 0 1 2 2 1-4 7-1-3 1-3h-2l1-3z" fill="#1B1D1B"/>
<path transform="translate(420,401)" d="m0 0 2 1v1l2 1-5 4h-3v-4z" fill="#F5C85F"/>
<path transform="translate(643,385)" d="m0 0 11 3v2l-3 1-7-4z" fill="#1B1D1B"/>
<path transform="translate(562,259)" d="m0 0 5 1v3h-7v-3z" fill="#011020"/>
</svg>
